<svg width="44" height="44" viewBox="0 0 44 44" fill="none" xmlns="http://www.w3.org/2000/svg">
<g clip-path="url(#clip0_94_93)">
<path d="M38.5 11H33C33 8.08262 31.8411 5.28473 29.7782 3.22183C27.7153 1.15893 24.9174 0 22 0C19.0826 0 16.2847 1.15893 14.2218 3.22183C12.1589 5.28473 11 8.08262 11 11H5.5C4.04131 11 2.64236 11.5795 1.61091 12.6109C0.579463 13.6424 0 15.0413 0 16.5L0 34.8333C0.00291107 37.2636 0.969617 39.5935 2.68807 41.3119C4.40652 43.0304 6.73641 43.9971 9.16667 44H34.8333C37.2636 43.9971 39.5935 43.0304 41.3119 41.3119C43.0304 39.5935 43.9971 37.2636 44 34.8333V16.5C44 15.0413 43.4205 13.6424 42.3891 12.6109C41.3576 11.5795 39.9587 11 38.5 11ZM22 3.66667C23.9449 3.66667 25.8102 4.43928 27.1855 5.81455C28.5607 7.18982 29.3333 9.05508 29.3333 11H14.6667C14.6667 9.05508 15.4393 7.18982 16.8146 5.81455C18.1898 4.43928 20.0551 3.66667 22 3.66667V3.66667ZM40.3333 34.8333C40.3333 36.292 39.7539 37.691 38.7224 38.7224C37.691 39.7539 36.292 40.3333 34.8333 40.3333H9.16667C7.70798 40.3333 6.30903 39.7539 5.27758 38.7224C4.24613 37.691 3.66667 36.292 3.66667 34.8333V16.5C3.66667 16.0138 3.85982 15.5475 4.20364 15.2036C4.54745 14.8598 5.01377 14.6667 5.5 14.6667H11V18.3333C11 18.8196 11.1932 19.2859 11.537 19.6297C11.8808 19.9735 12.3471 20.1667 12.8333 20.1667C13.3196 20.1667 13.7859 19.9735 14.1297 19.6297C14.4735 19.2859 14.6667 18.8196 14.6667 18.3333V14.6667H29.3333V18.3333C29.3333 18.8196 29.5265 19.2859 29.8703 19.6297C30.2141 19.9735 30.6804 20.1667 31.1667 20.1667C31.6529 20.1667 32.1192 19.9735 32.463 19.6297C32.8068 19.2859 33 18.8196 33 18.3333V14.6667H38.5C38.9862 14.6667 39.4525 14.8598 39.7964 15.2036C40.1402 15.5475 40.3333 16.0138 40.3333 16.5V34.8333Z" fill="#4D1461"/>
</g>
<defs>
<clipPath id="clip0_94_93">
<rect width="44" height="44" fill="white"/>
</clipPath>
</defs>
</svg>
