<svg width="94" height="48" viewBox="0 0 94 48" fill="none" xmlns="http://www.w3.org/2000/svg">
<path d="M12.3384 12.0099C11.7286 12.0099 10.8799 12.3472 9.79256 13.0181C8.70392 13.6917 7.86865 14.4305 7.2854 15.2379V24.9614C8.71832 24.505 10.0711 22.8507 11.3443 19.9983C12.5113 17.4166 13.0941 15.2246 13.0941 13.4224C13.0941 12.4809 12.8425 12.0099 12.3384 12.0099ZM15.6413 8.90386C18.1871 10.2757 19.4599 12.6297 19.4599 15.9649C19.4599 18.3841 18.5184 21.451 16.6354 25.1627C14.54 29.3061 12.4041 31.3762 10.23 31.3762C9.80562 31.3762 9.33487 31.1685 8.81778 30.751C8.30068 30.3338 7.78989 29.9231 7.2854 29.5206V40.7812C7.2854 41.1317 7.3511 41.5346 7.48431 41.9924C7.66973 42.6381 7.78989 43.0817 7.84254 43.3236C7.89565 43.5655 7.79619 44.0022 7.54462 44.6352C7.29215 45.2669 6.92807 45.6096 6.44968 45.6635C5.97263 45.7168 4.93844 45.381 3.34665 44.6549C1.67521 43.9018 0.641016 43.2296 0.244082 42.6381C0.0051107 42.2616 0.0051107 41.6966 0.244082 40.9432C0.428148 40.3782 0.522651 39.935 0.522651 39.6119V10.2757C0.522651 10.1137 0.428148 9.81797 0.244082 9.38761C0.0582154 8.95725 -0.0218943 8.64874 0.00510808 8.45935C0.163972 7.16827 0.641014 6.52341 1.43668 6.52341C1.56944 6.52341 2.10634 6.67812 3.04872 6.98663C3.99021 7.29651 4.73952 7.46536 5.29667 7.49138C6.09234 7.51876 7.10628 7.3029 8.34029 6.84652C9.57339 6.38878 10.4685 6.16014 11.0257 6.16014C11.3443 6.16014 11.6625 6.20075 11.9798 6.28153C12.59 6.44263 13.2268 6.84652 13.8897 7.49138C14.6858 8.24485 15.2686 8.71537 15.6413 8.90386Z" fill="#E73983"/>
<path d="M29.9232 11.0421C29.9502 11.0955 29.9633 11.2028 29.9633 11.3652C29.9633 11.9562 29.8444 12.7225 29.6059 13.6644C29.3404 14.6872 29.0888 15.2522 28.8503 15.3594C28.5843 15.4667 27.443 15.1773 25.4273 14.4923C23.4116 13.8055 22.3373 13.3153 22.2059 13.0182C22.1258 12.885 22.0858 12.6832 22.0858 12.414C22.0858 11.687 22.2716 10.9203 22.6429 10.1134C23.0673 9.19929 23.5443 8.68814 24.0758 8.5809C24.6847 8.47365 25.7459 8.70914 27.2585 9.28691C28.7702 9.86514 29.659 10.4511 29.9232 11.0421ZM29.8044 38.9211C29.9101 39.8891 29.5789 40.4942 28.8102 40.7366C28.6775 40.7626 28.4916 40.7767 28.2531 40.7767C27.2972 40.7767 26.1172 40.5755 24.7117 40.1716C23.2001 39.7412 22.3117 39.2848 22.0457 38.7993C21.9129 38.5848 22.0331 38.1676 22.4044 37.5493C22.6429 37.1463 22.7631 36.406 22.7631 35.3299V18.3843C22.4444 17.3629 22.2847 16.6774 22.2847 16.3269C22.2847 15.9778 22.7757 15.8026 23.7572 15.8026C24.5529 15.8026 25.6595 16.0522 27.0794 16.5492C28.4979 17.0476 29.353 17.4843 29.646 17.8599C29.7247 17.9685 29.7648 18.1031 29.7648 18.2638C29.7648 18.4797 29.6113 18.8826 29.3066 19.4736C29.0024 20.066 28.8503 20.5096 28.8503 20.8049V37.0249C28.8503 37.2941 29.0024 37.6305 29.3066 38.033C29.6113 38.4374 29.7774 38.7326 29.8044 38.9211Z" fill="#E73983"/>
<path d="M49.6578 31.8602C49.6578 32.3713 49.2194 33.0582 48.345 33.9189C47.6276 35.5053 46.9922 36.648 46.435 37.3476C45.215 38.9618 43.7163 39.9166 41.9391 40.2119C41.5679 40.2657 41.2092 40.2931 40.8649 40.2931C39.3789 40.2931 37.549 39.5675 35.3744 38.1144C33.4905 36.8233 32.5491 33.8518 32.5491 29.1973C32.5491 25.7553 33.0662 22.6346 34.1017 19.8375C35.2416 16.798 36.6332 15.2244 38.279 15.1172C39.5778 15.0364 41.1691 15.3869 43.0534 16.1664C44.9364 16.9468 46.2091 17.8061 46.872 18.7481C47.4292 19.5285 47.7077 20.5631 47.7077 21.8551C47.7077 22.2047 47.6807 22.7094 47.6276 23.3671C47.575 24.0274 47.5619 24.4907 47.5889 24.7599C47.642 25.486 47.6677 25.8219 47.6677 25.7685C47.6677 26.6288 47.2564 27.0459 46.435 27.0185C45.4805 26.9925 44.5777 26.8446 43.7289 26.5754C42.589 26.171 41.8991 25.6206 41.6606 24.921C41.5805 24.6787 41.6939 24.356 41.9985 23.9531C42.3028 23.5492 42.4292 23.2128 42.3761 22.9449C42.4292 22.7564 42.4562 22.2855 42.4562 21.5324C42.4562 19.9183 42.1777 19.0854 41.6205 19.0306C40.7717 18.9768 40.0548 20.2806 39.472 22.9449C38.9419 25.3117 38.6764 27.8934 38.6764 30.691C38.6764 33.9983 39.0607 35.7471 39.8303 35.9352C40.4405 36.0703 41.2362 35.398 42.2177 33.9189C43.039 32.6538 43.4841 31.8 43.5498 31.3568C43.6155 30.9119 43.6763 30.4623 43.7289 30.0046C43.9148 29.2525 44.3919 28.902 45.1619 28.9554C45.6389 29.0106 46.4746 29.3191 47.6677 29.8841C48.8621 30.4491 49.4912 30.8717 49.5583 31.1542C49.6245 31.4367 49.6578 31.6731 49.6578 31.8602Z" fill="#E73983"/>
<path d="M72.0483 36.2599C72.101 36.771 71.5969 37.6984 70.5357 39.0429C69.4755 40.3874 68.6528 41.0203 68.0695 40.9391C66.9282 40.7785 64.1254 37.1727 60.4396 31.0938C60.1736 31.3909 59.7236 31.86 59.0867 32.5062V37.2667C59.0867 37.4013 59.12 37.6436 59.1858 37.9928C59.2515 38.3433 59.2983 38.5979 59.3253 38.7604C59.4049 39.6731 59.2195 40.2655 58.7681 40.5352C58.5296 40.6699 58.1453 40.7365 57.6151 40.7365C56.6066 40.7365 55.625 40.548 54.6705 40.1715C53.5562 39.7411 52.9995 39.2309 52.9995 38.6385V2.42066C52.9995 1.9903 53.1323 1.51978 53.3978 1.00818C53.662 0.49704 53.968 0.175304 54.3123 0.0393028C54.3919 0.0128326 54.4977 5.72205e-05 54.6309 5.72205e-05C55.3208 5.72205e-05 56.2817 0.235077 57.5157 0.704685C58.7488 1.17704 59.431 1.58641 59.5638 1.93554C59.6439 2.12494 59.6835 2.28603 59.6835 2.42066C59.6835 2.63515 59.5768 2.91126 59.3653 3.24715C59.1524 3.5835 59.0467 3.89977 59.0467 4.1955V24.4777L64.935 16.2867C65.2797 15.8025 65.7167 15.5478 66.2482 15.52C66.7523 15.494 67.4552 15.8171 68.3567 16.4893C69.3638 17.2428 69.8809 17.9817 69.9084 18.7073C69.934 19.0044 69.3112 20.0531 68.038 21.8554C66.0754 24.7063 64.921 26.3999 64.5768 26.9389L70.1383 34.6462C70.3229 34.9154 70.7086 35.1966 71.2914 35.4937C71.7697 35.7355 72.0213 35.9906 72.0483 36.2599Z" fill="#E73983"/>
<path d="M93.7401 17.9005C93.7928 18.1163 93.8202 18.3176 93.8202 18.5061C93.8202 18.9638 93.6213 19.4344 93.223 19.9186C92.7185 20.537 92.4274 20.9673 92.3486 21.2092L84.4311 44.3278C84.377 44.8654 84.3244 45.403 84.2713 45.9415C84.1655 46.8022 83.9 47.286 83.4756 47.3932C83.3429 47.4206 83.197 47.4338 83.0382 47.4338C82.3226 47.4338 81.4329 47.239 80.3726 46.8492C79.3114 46.4595 78.5747 46.0684 78.1647 45.6786C77.7534 45.2889 77.5482 44.8781 77.5482 44.4482C77.5482 44.0713 77.7327 43.5811 78.104 42.9755C78.4757 42.3713 78.6886 41.9879 78.7412 41.8259L80.054 37.2667L73.6085 21.2092C73.5554 21.1019 73.3169 20.8327 72.8925 20.4023C72.5482 20.0532 72.3223 19.5142 72.2165 18.7886C72.1625 18.4655 72.8592 17.8941 74.3047 17.074C75.7503 16.2539 76.8839 15.8432 77.707 15.8432C77.9185 15.8432 78.0914 15.8838 78.2241 15.965C78.6485 16.2069 78.9667 16.6646 79.1782 17.3355C79.3114 17.9279 79.4568 18.5061 79.617 19.0711L83.1169 28.8745L86.8572 18.7886C87.017 18.251 87.1884 17.7134 87.3743 17.1749C87.5602 16.6372 87.8387 16.3009 88.21 16.1663C88.4486 16.085 88.7402 16.0449 89.0858 16.0449C89.9616 16.0449 90.9287 16.2539 91.9899 16.6696C93.0502 17.0872 93.6344 17.4975 93.7401 17.9005Z" fill="#E73983"/>
<path d="M34.3856 0.879544C33.5822 0.822953 32.9679 1.59879 33.2078 2.37874C33.6614 3.85419 34.4909 5.67148 36.0394 7.3012C38.809 10.2165 43.75 12.3962 47.8327 10.6035C48.7004 10.2224 49.4002 9.71906 49.9484 9.22343C50.5033 8.72233 50.7625 7.95654 50.6036 7.21996C49.8777 3.84644 48.4205 2.51245 47.484 1.9219C45.7959 0.857636 44.2252 1.21817 39.097 1.09997C37.2685 1.05753 35.6704 0.970363 34.3856 0.879544Z" fill="#9D1C51"/>
</svg>
