<svg width="44" height="44" viewBox="0 0 44 44" fill="none" xmlns="http://www.w3.org/2000/svg">
<g clip-path="url(#clip0_94_98)">
<path d="M43.4624 40.8718L32.5193 29.9286C35.5014 26.2814 36.9676 21.6275 36.6146 16.9295C36.2617 12.2315 34.1165 7.84895 30.6228 4.68826C27.1292 1.52758 22.5544 -0.169388 17.8446 -0.05163C13.1349 0.0661284 8.65056 1.9896 5.31922 5.32093C1.98789 8.65227 0.0644194 13.1366 -0.0533389 17.8463C-0.171097 22.5561 1.52587 27.1309 4.68655 30.6246C7.84724 34.1182 12.2298 36.2634 16.9278 36.6164C21.6258 36.9693 26.2797 35.5031 29.9269 32.521L40.8701 43.4642C41.2159 43.7981 41.679 43.9829 42.1597 43.9787C42.6404 43.9745 43.1002 43.7817 43.4401 43.4418C43.78 43.1019 43.9728 42.6421 43.977 42.1614C43.9812 41.6807 43.7964 41.2176 43.4624 40.8718ZM18.3329 33.0013C15.4321 33.0013 12.5965 32.1411 10.1846 30.5295C7.77265 28.9179 5.89279 26.6273 4.7827 23.9473C3.67261 21.2674 3.38217 18.3184 3.94808 15.4733C4.514 12.6283 5.91086 10.0149 7.96203 7.96374C10.0132 5.91257 12.6266 4.51571 15.4716 3.94979C18.3167 3.38388 21.2656 3.67432 23.9456 4.78441C26.6256 5.89449 28.9162 7.77436 30.5278 10.1863C32.1394 12.5982 32.9996 15.4339 32.9996 18.3346C32.9952 22.2231 31.4486 25.9511 28.699 28.7007C25.9494 31.4503 22.2214 32.9969 18.3329 33.0013Z" fill="#4D1461"/>
</g>
<defs>
<clipPath id="clip0_94_98">
<rect width="44" height="44" fill="white"/>
</clipPath>
</defs>
</svg>
