<svg width="41" height="41" viewBox="0 0 41 41" fill="none" xmlns="http://www.w3.org/2000/svg">
<path d="M22.672 9.78348C22.672 10.2031 22.672 11.5707 22.672 13.5138H29.3524L28.6281 19.4689H22.672C22.672 28.6529 22.672 40.9599 22.672 40.9599H14.7662C14.7662 40.9599 14.7662 28.8158 14.7662 19.4689H10.6467V13.5138H14.7662C14.7662 11.1521 14.7662 9.47277 14.7662 9.0052C14.7662 6.77742 14.5983 5.72039 15.5449 3.99407C16.492 2.26782 19.1634 -0.0139212 23.7839 0.0410124C28.4054 0.0979479 30.3535 0.542542 30.3535 0.542542L29.3524 6.88929C29.3524 6.88929 26.4013 6.11005 24.9528 6.38776C23.5062 6.66556 22.672 7.55666 22.672 9.78348Z" fill="#4D1461"/>
</svg>
