<svg width="41" height="41" viewBox="0 0 41 41" fill="none" xmlns="http://www.w3.org/2000/svg">
<g clip-path="url(#clip0_0_185)">
<path d="M28.7859 0H12.2141C5.47923 0 0 5.47923 0 12.2141V28.7859C0 35.5208 5.47923 41 12.2141 41H28.7859C35.5208 41 41 35.5208 41 28.7859V12.2141C40.9999 5.47923 35.5207 0 28.7859 0ZM36.8754 28.7859C36.8754 33.2536 33.2536 36.8754 28.7859 36.8754H12.2141C7.74644 36.8754 4.1246 33.2536 4.1246 28.7859V12.2141C4.1246 7.74636 7.74644 4.1246 12.2141 4.1246H28.7859C33.2536 4.1246 36.8754 7.74636 36.8754 12.2141V28.7859Z" fill="#4D1461"/>
<path d="M20.5001 9.89594C14.653 9.89594 9.896 14.6529 9.896 20.4999C9.896 26.3469 14.653 31.104 20.5001 31.104C26.3471 31.104 31.1041 26.347 31.1041 20.4999C31.1041 14.6528 26.3471 9.89594 20.5001 9.89594ZM20.5001 26.9795C16.9215 26.9795 14.0206 24.0785 14.0206 20.5C14.0206 16.9215 16.9216 14.0205 20.5001 14.0205C24.0786 14.0205 26.9795 16.9215 26.9795 20.5C26.9795 24.0785 24.0785 26.9795 20.5001 26.9795Z" fill="#4D1461"/>
<path d="M31.1244 12.5166C32.5277 12.5166 33.6652 11.379 33.6652 9.97569C33.6652 8.5724 32.5277 7.43481 31.1244 7.43481C29.7211 7.43481 28.5835 8.5724 28.5835 9.97569C28.5835 11.379 29.7211 12.5166 31.1244 12.5166Z" fill="#4D1461"/>
</g>
<defs>
<clipPath id="clip0_0_185">
<rect width="41" height="41" fill="white"/>
</clipPath>
</defs>
</svg>
