<svg width="41" height="41" viewBox="0 0 41 41" fill="none" xmlns="http://www.w3.org/2000/svg">
<path d="M20.5 0C19.6291 0 18.9231 0.640344 18.9231 1.43023V28.1279C18.9231 30.4975 16.805 32.4186 14.1923 32.4186C11.5796 32.4186 9.46154 30.4975 9.46154 28.1279C9.46154 25.7583 11.5796 23.8372 14.1923 23.8372C15.0632 23.8372 15.7692 23.1968 15.7692 22.407V16.686C15.7692 15.8962 15.0632 15.2558 14.1923 15.2558C6.35412 15.2558 0 21.0189 0 28.1279C0 35.2369 6.35412 41 14.1923 41C22.0305 41 28.3846 35.2369 28.3846 28.1279V17.1001C31.571 18.95 35.3599 20.0233 39.4231 20.0233C40.294 20.0233 41 19.3829 41 18.593V12.8721C41 12.0822 40.294 11.4419 39.4231 11.4419C33.3267 11.4419 28.3846 6.95951 28.3846 1.43023C28.3846 0.640344 27.6786 0 26.8077 0H20.5Z" fill="#4D1461"/>
</svg>
